# xmcd CD database file
#
# Track frame offsets:
#	150
#	19644
#	33745
#	47463
#	65608
#	77493
#	94386
#	111687
#	123638
#	138285
#	156192
#
# Disc length: 2329 seconds
#
# Revision: 0
# Processed by: cddbd v1.5.2PL0 Copyright (c) Steve Scherf et al.
# Submitted via: CDex 1.83
#
DISCID=9609170b
DTITLE=Rosellys - One Way St.
DYEAR=2008
DGENRE=Country
TTITLE0=Only Way She Knows
TTITLE1=Wake Me Up
TTITLE2=Home With You
TTITLE3=Rescue Me
TTITLE4=Caught Me At A Bad Time
TTITLE5=Mary
TTITLE6=You Stole My Heart
TTITLE7=Mr Man
TTITLE8=American Dream
TTITLE9=Moon And Stars
TTITLE10=Redwoods
EXTD=YEAR: 2008
EXTT0=
EXTT1=
EXTT2=
EXTT3=
EXTT4=
EXTT5=
EXTT6=
EXTT7=
EXTT8=
EXTT9=
EXTT10=
PLAYORDER=
